<svg xmlns="http://www.w3.org/2000/svg" xmlns:xlink="http://www.w3.org/1999/xlink" viewBox="0 0 520 520" width="520" height="520" preserveAspectRatio="xMidYMid meet" style="width: 100%; height: 100%; transform: translate3d(0px, 0px, 0px); content-visibility: visible;"><defs><clipPath id="__lottie_element_888"><rect width="520" height="520" x="0" y="0"></rect></clipPath><linearGradient id="__lottie_element_892" spreadMethod="pad" gradientUnits="userSpaceOnUse" x1="0" y1="122.98400115966797" x2="-0.421999990940094" y2="-119.68800354003906"><stop offset="0%" stop-color="rgb(0,129,237)"></stop><stop offset="50%" stop-color="rgb(60,163,246)"></stop><stop offset="100%" stop-color="rgb(119,196,255)"></stop></linearGradient><linearGradient id="__lottie_element_896" spreadMethod="pad" gradientUnits="userSpaceOnUse" x1="-41.65999984741211" y1="21.597999572753906" x2="33.35499954223633" y2="-20.03700065612793"><stop offset="0%" stop-color="rgb(255,255,255)"></stop><stop offset="50%" stop-color="rgb(255,255,255)"></stop><stop offset="100%" stop-color="rgb(255,255,255)"></stop></linearGradient><mask id="__lottie_element_898"><path fill="url(#__lottie_element_897)" d=" M-28.82900047302246,29.45400047302246 C-32.07899856567383,29.45400047302246 -35.35300064086914,28.402999877929688 -38.104000091552734,26.235000610351562 C-44.611000061035156,21.10700035095215 -45.72800064086914,11.675999641418457 -40.60100173950195,5.170000076293945 C-23.259000778198242,-16.833999633789062 2.739000082015991,-29.45400047302246 30.726999282836914,-29.45400047302246 C39.01100158691406,-29.45400047302246 45.72700119018555,-22.738000869750977 45.72700119018555,-14.454000473022461 C45.72700119018555,-6.170000076293945 39.01100158691406,0.5460000038146973 30.726999282836914,0.5460000038146973 C11.98799991607666,0.5460000038146973 -5.421000003814697,8.99899959564209 -17.03700065612793,23.73900032043457 C-19.996999740600586,27.4950008392334 -24.392000198364258,29.45400047302246 -28.82900047302246,29.45400047302246z"></path></mask><linearGradient id="__lottie_element_897" spreadMethod="pad" gradientUnits="userSpaceOnUse" x1="-41.65999984741211" y1="21.597999572753906" x2="33.35499954223633" y2="-20.03700065612793"><stop stop-color="rgb(255,255,255)" offset="0%" stop-opacity="0"></stop><stop stop-color="rgb(255,255,255)" offset="0%" stop-opacity="0.17499999701976776"></stop><stop stop-color="rgb(255,255,255)" offset="0%" stop-opacity="0.3499999940395355"></stop><stop stop-color="rgb(255,255,255)" offset="50%" stop-opacity="0.675000011920929"></stop><stop stop-color="rgb(255,255,255)" offset="100%" stop-opacity="1"></stop></linearGradient><linearGradient id="__lottie_element_899" spreadMethod="pad" gradientUnits="userSpaceOnUse" x1="-8.428000450134277" y1="15.604000091552734" x2="6.004000186920166" y2="-16.283000946044922"><stop offset="0%" stop-color="rgb(255,255,255)" stop-opacity="0.15000000596046448"></stop><stop offset="50%" stop-color="rgb(255,255,255)" stop-opacity="0.25"></stop><stop offset="100%" stop-color="rgb(255,255,255)" stop-opacity="0.3499999940395355"></stop></linearGradient></defs><g clip-path="url(#__lottie_element_888)"><g transform="matrix(1,0,0,1,54.00199890136719,-59.45799255371094)" opacity="1" style="display: block;"><g opacity="1" transform="matrix(1,0,0,1,204.99099731445312,297.1789855957031)"><path fill="url(#__lottie_element_892)" fill-opacity="1" d=" M98.802001953125,-31.41900062561035 C87.01000213623047,-31.41900062561035 75.84400177001953,-28.74799919128418 65.86499786376953,-23.989999771118164 C54.72200012207031,-79.78399658203125 5.474999904632568,-121.8280029296875 -53.595001220703125,-121.8280029296875 C-120.87999725341797,-121.8280029296875 -175.4239959716797,-67.28299713134766 -175.4239959716797,0 C-175.4239959716797,67.28399658203125 -120.87999725341797,121.8280029296875 -53.595001220703125,121.8280029296875 C-53.23099899291992,121.8280029296875 -52.86899948120117,121.81700134277344 -52.505001068115234,121.81400299072266 C-52.505001068115234,121.81400299072266 -52.505001068115234,121.8280029296875 -52.505001068115234,121.8280029296875 C-52.505001068115234,121.8280029296875 96.86199951171875,121.8280029296875 96.86199951171875,121.8280029296875 C96.86199951171875,121.8280029296875 96.86199951171875,121.77799987792969 96.86199951171875,121.77799987792969 C97.50800323486328,121.79399871826172 98.1520004272461,121.8280029296875 98.802001953125,121.8280029296875 C141.11900329589844,121.8280029296875 175.4239959716797,87.52200317382812 175.4239959716797,45.20399856567383 C175.4239959716797,2.885999917984009 141.11900329589844,-31.41900062561035 98.802001953125,-31.41900062561035z"></path></g></g><g transform="matrix(1,0,0,1,54.00199890136719,-59.45799255371094)" opacity="1" style="display: block;"><g opacity="1" transform="matrix(1,0,0,1,120.66699981689453,235.85899353027344)"><path fill="url(#__lottie_element_896)" mask="url(#__lottie_element_898)" fill-opacity="1" d="M0 0 M-28.82900047302246,29.45400047302246 C-32.07899856567383,29.45400047302246 -35.35300064086914,28.402999877929688 -38.104000091552734,26.235000610351562 C-44.611000061035156,21.10700035095215 -45.72800064086914,11.675999641418457 -40.60100173950195,5.170000076293945 C-23.259000778198242,-16.833999633789062 2.739000082015991,-29.45400047302246 30.726999282836914,-29.45400047302246 C39.01100158691406,-29.45400047302246 45.72700119018555,-22.738000869750977 45.72700119018555,-14.454000473022461 C45.72700119018555,-6.170000076293945 39.01100158691406,0.5460000038146973 30.726999282836914,0.5460000038146973 C11.98799991607666,0.5460000038146973 -5.421000003814697,8.99899959564209 -17.03700065612793,23.73900032043457 C-19.996999740600586,27.4950008392334 -24.392000198364258,29.45400047302246 -28.82900047302246,29.45400047302246z"></path></g><g opacity="1" transform="matrix(1,0,0,1,75.93099975585938,294.59100341796875)"><path fill="url(#__lottie_element_899)" fill-opacity="1" d=" M-0.3109999895095825,17.586999893188477 C-8.595000267028809,17.586999893188477 -15.310999870300293,10.871000289916992 -15.310999870300293,2.5869998931884766 C-15.310999870300293,0.7179999947547913 -15.253000259399414,-1.1729999780654907 -15.140000343322754,-3.0329999923706055 C-14.633000373840332,-11.300999641418457 -7.51800012588501,-17.586999893188477 0.7490000128746033,-17.08799934387207 C9.017999649047852,-16.58099937438965 15.310999870300293,-9.468999862670898 14.805000305175781,-1.2000000476837158 C14.727999687194824,0.052000001072883606 14.689000129699707,1.3270000219345093 14.689000129699707,2.5869998931884766 C14.689000129699707,10.871000289916992 7.9730000495910645,17.586999893188477 -0.3109999895095825,17.586999893188477z"></path></g></g></g></svg>