<svg xmlns="http://www.w3.org/2000/svg" xmlns:xlink="http://www.w3.org/1999/xlink" viewBox="0 0 520 520" width="520" height="520" preserveAspectRatio="xMidYMid meet" style="width: 100%; height: 100%; transform: translate3d(0px, 0px, 0px); content-visibility: visible;"><defs><clipPath id="__lottie_element_4507"><rect width="520" height="520" x="0" y="0"></rect></clipPath><linearGradient id="__lottie_element_4511" spreadMethod="pad" gradientUnits="userSpaceOnUse" x1="0" y1="101.28900146484375" x2="2.125" y2="-98.10900115966797"><stop offset="0%" stop-color="rgb(255,155,35)"></stop><stop offset="50%" stop-color="rgb(255,190,46)"></stop><stop offset="100%" stop-color="rgb(255,226,57)"></stop></linearGradient><linearGradient id="__lottie_element_4515" spreadMethod="pad" gradientUnits="userSpaceOnUse" x1="-41.65999984741211" y1="21.597999572753906" x2="33.35499954223633" y2="-20.03700065612793"><stop offset="0%" stop-color="rgb(255,255,255)"></stop><stop offset="50%" stop-color="rgb(255,255,255)"></stop><stop offset="100%" stop-color="rgb(255,255,255)"></stop></linearGradient><mask id="__lottie_element_4517"><path fill="url(#__lottie_element_4516)" d=" M-28.82900047302246,29.45400047302246 C-32.07899856567383,29.45400047302246 -35.35300064086914,28.402999877929688 -38.104000091552734,26.235000610351562 C-44.611000061035156,21.10700035095215 -45.72800064086914,11.675999641418457 -40.60100173950195,5.170000076293945 C-23.259000778198242,-16.833999633789062 2.739000082015991,-29.45400047302246 30.726999282836914,-29.45400047302246 C39.01100158691406,-29.45400047302246 45.72700119018555,-22.738000869750977 45.72700119018555,-14.454000473022461 C45.72700119018555,-6.170000076293945 39.01100158691406,0.5460000038146973 30.726999282836914,0.5460000038146973 C11.98799991607666,0.5460000038146973 -5.421000003814697,8.99899959564209 -17.03700065612793,23.73900032043457 C-19.996999740600586,27.4950008392334 -24.392000198364258,29.45400047302246 -28.82900047302246,29.45400047302246z"></path></mask><linearGradient id="__lottie_element_4516" spreadMethod="pad" gradientUnits="userSpaceOnUse" x1="-41.65999984741211" y1="21.597999572753906" x2="33.35499954223633" y2="-20.03700065612793"><stop stop-color="rgb(255,255,255)" offset="0%" stop-opacity="0"></stop><stop stop-color="rgb(255,255,255)" offset="0%" stop-opacity="0.17499999701976776"></stop><stop stop-color="rgb(255,255,255)" offset="0%" stop-opacity="0.3499999940395355"></stop><stop stop-color="rgb(255,255,255)" offset="50%" stop-opacity="0.675000011920929"></stop><stop stop-color="rgb(255,255,255)" offset="100%" stop-opacity="1"></stop></linearGradient><linearGradient id="__lottie_element_4518" spreadMethod="pad" gradientUnits="userSpaceOnUse" x1="-8.428000450134277" y1="15.604000091552734" x2="6.004000186920166" y2="-16.283000946044922"><stop offset="0%" stop-color="rgb(255,255,255)" stop-opacity="0.15000000596046448"></stop><stop offset="50%" stop-color="rgb(255,255,255)" stop-opacity="0.25"></stop><stop offset="100%" stop-color="rgb(255,255,255)" stop-opacity="0.3499999940395355"></stop></linearGradient><linearGradient id="__lottie_element_4522" spreadMethod="pad" gradientUnits="userSpaceOnUse" x1="-0.734000027179718" y1="-48.10499954223633" x2="-1.003999948501587" y2="43.19900131225586"><stop offset="0%" stop-color="rgb(255,226,57)"></stop><stop offset="50%" stop-color="rgb(255,190,46)"></stop><stop offset="100%" stop-color="rgb(255,155,35)"></stop></linearGradient><g id="__lottie_element_4523"><g transform="matrix(-1,0,0,-1,598.780029296875,301.9750061035156)" opacity="1" style="display: none;"><g opacity="1" transform="matrix(1,0,0,1,284.3890075683594,148.71600341796875)"><path fill="rgb(168,214,251)" fill-opacity="1" d=" M6.75,-39.54399871826172 C6.75,-39.54399871826172 12.333000183105469,-24.457000732421875 12.333000183105469,-24.457000732421875 C14.41100025177002,-18.84000015258789 18.84000015258789,-14.40999984741211 24.45800018310547,-12.331000328063965 C24.45800018310547,-12.331000328063965 39.54399871826172,-6.75 39.54399871826172,-6.75 C45.81100082397461,-4.432000160217285 45.81100082397461,4.432000160217285 39.54399871826172,6.75 C39.54399871826172,6.75 24.45800018310547,12.333000183105469 24.45800018310547,12.333000183105469 C18.84000015258789,14.41100025177002 14.41100025177002,18.840999603271484 12.333000183105469,24.45800018310547 C12.333000183105469,24.45800018310547 6.75,39.54399871826172 6.75,39.54399871826172 C4.431000232696533,45.810001373291016 -4.432000160217285,45.810001373291016 -6.75,39.54399871826172 C-6.75,39.54399871826172 -12.333000183105469,24.45800018310547 -12.333000183105469,24.45800018310547 C-14.41100025177002,18.840999603271484 -18.84000015258789,14.41100025177002 -24.45800018310547,12.333000183105469 C-24.45800018310547,12.333000183105469 -39.54399871826172,6.75 -39.54399871826172,6.75 C-45.81100082397461,4.432000160217285 -45.81100082397461,-4.432000160217285 -39.54399871826172,-6.75 C-39.54399871826172,-6.75 -24.45800018310547,-12.331000328063965 -24.45800018310547,-12.331000328063965 C-18.84000015258789,-14.40999984741211 -14.41100025177002,-18.84000015258789 -12.333000183105469,-24.457000732421875 C-12.333000183105469,-24.457000732421875 -6.75,-39.54399871826172 -6.75,-39.54399871826172 C-4.432000160217285,-45.81100082397461 4.431000232696533,-45.81100082397461 6.75,-39.54399871826172z"></path></g></g></g><linearGradient id="__lottie_element_4529" spreadMethod="pad" gradientUnits="userSpaceOnUse" x1="-0.734000027179718" y1="-48.10499954223633" x2="-1.003999948501587" y2="43.19900131225586"><stop offset="0%" stop-color="rgb(255,226,57)"></stop><stop offset="50%" stop-color="rgb(255,190,46)"></stop><stop offset="100%" stop-color="rgb(255,155,35)"></stop></linearGradient><g id="__lottie_element_4530"><g transform="matrix(-0.9999999403953552,0,0,-0.9999999403953552,723.4439697265625,420.12298583984375)" opacity="1" style="display: none;"><g opacity="1" transform="matrix(1,0,0,1,341.72100830078125,201.79100036621094)"><path fill="rgb(168,214,251)" fill-opacity="1" d=" M4.297999858856201,-25.17799949645996 C4.297999858856201,-25.17799949645996 7.8520002365112305,-15.572999954223633 7.8520002365112305,-15.572999954223633 C9.175000190734863,-11.996000289916992 11.996000289916992,-9.175999641418457 15.571999549865723,-7.853000164031982 C15.571999549865723,-7.853000164031982 25.177000045776367,-4.298999786376953 25.177000045776367,-4.298999786376953 C29.16699981689453,-2.822999954223633 29.16699981689453,2.819999933242798 25.177000045776367,4.296999931335449 C25.177000045776367,4.296999931335449 15.571999549865723,7.8520002365112305 15.571999549865723,7.8520002365112305 C11.996000289916992,9.175999641418457 9.175000190734863,11.994000434875488 7.8520002365112305,15.571000099182129 C7.8520002365112305,15.571000099182129 4.297999858856201,25.176000595092773 4.297999858856201,25.176000595092773 C2.821000099182129,29.166000366210938 -2.821000099182129,29.166000366210938 -4.296999931335449,25.176000595092773 C-4.296999931335449,25.176000595092773 -7.8520002365112305,15.571000099182129 -7.8520002365112305,15.571000099182129 C-9.175999641418457,11.994000434875488 -11.996000289916992,9.175999641418457 -15.572999954223633,7.8520002365112305 C-15.572999954223633,7.8520002365112305 -25.177000045776367,4.296999931335449 -25.177000045776367,4.296999931335449 C-29.166000366210938,2.819999933242798 -29.166000366210938,-2.822999954223633 -25.177000045776367,-4.298999786376953 C-25.177000045776367,-4.298999786376953 -15.572999954223633,-7.853000164031982 -15.572999954223633,-7.853000164031982 C-11.996000289916992,-9.175999641418457 -9.175999641418457,-11.996000289916992 -7.8520002365112305,-15.572999954223633 C-7.8520002365112305,-15.572999954223633 -4.296999931335449,-25.17799949645996 -4.296999931335449,-25.17799949645996 C-2.821000099182129,-29.16699981689453 2.821000099182129,-29.16699981689453 4.297999858856201,-25.17799949645996z"></path></g></g></g><mask id="__lottie_element_4530_1" mask-type="alpha"><use xlink:href="#__lottie_element_4530"></use></mask><mask id="__lottie_element_4523_1" mask-type="alpha"><use xlink:href="#__lottie_element_4523"></use></mask><linearGradient id="__lottie_element_4536" spreadMethod="pad" gradientUnits="userSpaceOnUse" x1="-0.734000027179718" y1="-48.10499954223633" x2="-1.003999948501587" y2="43.19900131225586"><stop offset="0%" stop-color="rgb(255,226,57)"></stop><stop offset="50%" stop-color="rgb(255,190,46)"></stop><stop offset="100%" stop-color="rgb(255,155,35)"></stop></linearGradient><g id="__lottie_element_4537"><g transform="matrix(0.9961447715759277,0.0010570258600637317,-0.0010570258600637317,0.9961447715759277,31.25555419921875,4.81573486328125)" opacity="1" style="display: block;"><g opacity="1" transform="matrix(1,0,0,1,284.3890075683594,148.71600341796875)"><path fill="rgb(168,214,251)" fill-opacity="1" d=" M6.75,-39.54399871826172 C6.75,-39.54399871826172 12.333000183105469,-24.457000732421875 12.333000183105469,-24.457000732421875 C14.41100025177002,-18.84000015258789 18.84000015258789,-14.40999984741211 24.45800018310547,-12.331000328063965 C24.45800018310547,-12.331000328063965 39.54399871826172,-6.75 39.54399871826172,-6.75 C45.81100082397461,-4.432000160217285 45.81100082397461,4.432000160217285 39.54399871826172,6.75 C39.54399871826172,6.75 24.45800018310547,12.333000183105469 24.45800018310547,12.333000183105469 C18.84000015258789,14.41100025177002 14.41100025177002,18.840999603271484 12.333000183105469,24.45800018310547 C12.333000183105469,24.45800018310547 6.75,39.54399871826172 6.75,39.54399871826172 C4.431000232696533,45.810001373291016 -4.432000160217285,45.810001373291016 -6.75,39.54399871826172 C-6.75,39.54399871826172 -12.333000183105469,24.45800018310547 -12.333000183105469,24.45800018310547 C-14.41100025177002,18.840999603271484 -18.84000015258789,14.41100025177002 -24.45800018310547,12.333000183105469 C-24.45800018310547,12.333000183105469 -39.54399871826172,6.75 -39.54399871826172,6.75 C-45.81100082397461,4.432000160217285 -45.81100082397461,-4.432000160217285 -39.54399871826172,-6.75 C-39.54399871826172,-6.75 -24.45800018310547,-12.331000328063965 -24.45800018310547,-12.331000328063965 C-18.84000015258789,-14.40999984741211 -14.41100025177002,-18.84000015258789 -12.333000183105469,-24.457000732421875 C-12.333000183105469,-24.457000732421875 -6.75,-39.54399871826172 -6.75,-39.54399871826172 C-4.432000160217285,-45.81100082397461 4.431000232696533,-45.81100082397461 6.75,-39.54399871826172z"></path></g></g></g><linearGradient id="__lottie_element_4543" spreadMethod="pad" gradientUnits="userSpaceOnUse" x1="-0.734000027179718" y1="-48.10499954223633" x2="-1.003999948501587" y2="43.19900131225586"><stop offset="0%" stop-color="rgb(255,226,57)"></stop><stop offset="50%" stop-color="rgb(255,190,46)"></stop><stop offset="100%" stop-color="rgb(255,155,35)"></stop></linearGradient><g id="__lottie_element_4544"><g transform="matrix(0.771600604057312,0.23415030539035797,-0.23415030539035797,0.771600604057312,165.30003356933594,-17.382369995117188)" opacity="1" style="display: block;"><g opacity="1" transform="matrix(1,0,0,1,341.72100830078125,201.79100036621094)"><path fill="rgb(168,214,251)" fill-opacity="1" d=" M4.297999858856201,-25.17799949645996 C4.297999858856201,-25.17799949645996 7.8520002365112305,-15.572999954223633 7.8520002365112305,-15.572999954223633 C9.175000190734863,-11.996000289916992 11.996000289916992,-9.175999641418457 15.571999549865723,-7.853000164031982 C15.571999549865723,-7.853000164031982 25.177000045776367,-4.298999786376953 25.177000045776367,-4.298999786376953 C29.16699981689453,-2.822999954223633 29.16699981689453,2.819999933242798 25.177000045776367,4.296999931335449 C25.177000045776367,4.296999931335449 15.571999549865723,7.8520002365112305 15.571999549865723,7.8520002365112305 C11.996000289916992,9.175999641418457 9.175000190734863,11.994000434875488 7.8520002365112305,15.571000099182129 C7.8520002365112305,15.571000099182129 4.297999858856201,25.176000595092773 4.297999858856201,25.176000595092773 C2.821000099182129,29.166000366210938 -2.821000099182129,29.166000366210938 -4.296999931335449,25.176000595092773 C-4.296999931335449,25.176000595092773 -7.8520002365112305,15.571000099182129 -7.8520002365112305,15.571000099182129 C-9.175999641418457,11.994000434875488 -11.996000289916992,9.175999641418457 -15.572999954223633,7.8520002365112305 C-15.572999954223633,7.8520002365112305 -25.177000045776367,4.296999931335449 -25.177000045776367,4.296999931335449 C-29.166000366210938,2.819999933242798 -29.166000366210938,-2.822999954223633 -25.177000045776367,-4.298999786376953 C-25.177000045776367,-4.298999786376953 -15.572999954223633,-7.853000164031982 -15.572999954223633,-7.853000164031982 C-11.996000289916992,-9.175999641418457 -9.175999641418457,-11.996000289916992 -7.8520002365112305,-15.572999954223633 C-7.8520002365112305,-15.572999954223633 -4.296999931335449,-25.17799949645996 -4.296999931335449,-25.17799949645996 C-2.821000099182129,-29.16699981689453 2.821000099182129,-29.16699981689453 4.297999858856201,-25.17799949645996z"></path></g></g></g><mask id="__lottie_element_4544_1" mask-type="alpha"><use xlink:href="#__lottie_element_4544"></use></mask><mask id="__lottie_element_4537_1" mask-type="alpha"><use xlink:href="#__lottie_element_4537"></use></mask></defs><g clip-path="url(#__lottie_element_4507)"><g transform="matrix(1,0,0,1,30.759994506835938,-24.228195190429688)" opacity="1" style="display: block;"><g opacity="1" transform="matrix(1,0,0,1,197.31399536132812,277.7080078125)"><path fill="url(#__lottie_element_4511)" fill-opacity="1" d=" M111.06400299072266,-0.41999998688697815 C111.06400299072266,61.191001892089844 60.702999114990234,111.03900146484375 -1.1009999513626099,110.20099639892578 C-60.68000030517578,109.39399719238281 -109.31700134277344,60.7869987487793 -110.17400360107422,1.2079999446868896 C-111.06300354003906,-60.62699890136719 -61.198001861572266,-111.03900146484375 0.4339999854564667,-111.03900146484375 C4.744999885559082,-111.03900146484375 8.998000144958496,-110.79299926757812 13.180000305175781,-110.31300354003906 C16.179000854492188,-109.96800231933594 16.878000259399414,-105.90499877929688 14.145999908447266,-104.62300109863281 C-9.420000076293945,-93.56700134277344 -25.600000381469727,-69.38899993896484 -24.999000549316406,-41.5 C-24.22100067138672,-5.316999912261963 5.3429999351501465,24.246000289916992 41.525001525878906,25.02400016784668 C69.41400146484375,25.624000549316406 93.59300231933594,9.442999839782715 104.64800262451172,-14.121999740600586 C105.93000030517578,-16.854999542236328 109.99299621582031,-16.155000686645508 110.33699798583984,-13.156999588012695 C110.81800079345703,-8.979000091552734 111.06400299072266,-4.730000019073486 111.06400299072266,-0.41999998688697815z"></path></g></g><g transform="matrix(0.7098219394683838,-0.7043811678886414,0.7043811678886414,0.7098219394683838,-95.21273803710938,146.63633728027344)" opacity="1" style="display: block;"><g opacity="1" transform="matrix(1,0,0,1,120.66699981689453,235.85899353027344)"><path fill="url(#__lottie_element_4515)" mask="url(#__lottie_element_4517)" fill-opacity="1" d="M0 0 M-28.82900047302246,29.45400047302246 C-32.07899856567383,29.45400047302246 -35.35300064086914,28.402999877929688 -38.104000091552734,26.235000610351562 C-44.611000061035156,21.10700035095215 -45.72800064086914,11.675999641418457 -40.60100173950195,5.170000076293945 C-23.259000778198242,-16.833999633789062 2.739000082015991,-29.45400047302246 30.726999282836914,-29.45400047302246 C39.01100158691406,-29.45400047302246 45.72700119018555,-22.738000869750977 45.72700119018555,-14.454000473022461 C45.72700119018555,-6.170000076293945 39.01100158691406,0.5460000038146973 30.726999282836914,0.5460000038146973 C11.98799991607666,0.5460000038146973 -5.421000003814697,8.99899959564209 -17.03700065612793,23.73900032043457 C-19.996999740600586,27.4950008392334 -24.392000198364258,29.45400047302246 -28.82900047302246,29.45400047302246z"></path></g><g opacity="1" transform="matrix(1,0,0,1,75.93099975585938,294.59100341796875)"><path fill="url(#__lottie_element_4518)" fill-opacity="1" d=" M-0.3109999895095825,17.586999893188477 C-8.595000267028809,17.586999893188477 -15.310999870300293,10.871000289916992 -15.310999870300293,2.5869998931884766 C-15.310999870300293,0.7179999947547913 -15.253000259399414,-1.1729999780654907 -15.140000343322754,-3.0329999923706055 C-14.633000373840332,-11.300999641418457 -7.51800012588501,-17.586999893188477 0.7490000128746033,-17.08799934387207 C9.017999649047852,-16.58099937438965 15.310999870300293,-9.468999862670898 14.805000305175781,-1.2000000476837158 C14.727999687194824,0.052000001072883606 14.689000129699707,1.3270000219345093 14.689000129699707,2.5869998931884766 C14.689000129699707,10.871000289916992 7.9730000495910645,17.586999893188477 -0.3109999895095825,17.586999893188477z"></path></g></g><g mask="url(#__lottie_element_4523_1)" style="display: none;"><g transform="matrix(1,0,0,1,260,261)" opacity="1"><g opacity="1" transform="matrix(1,0,0,1,54,-109)"><path fill="url(#__lottie_element_4522)" fill-opacity="1" d=" M49.695499420166016,-49.695499420166016 C49.695499420166016,-49.695499420166016 49.695499420166016,49.695499420166016 49.695499420166016,49.695499420166016 C49.695499420166016,49.695499420166016 -49.695499420166016,49.695499420166016 -49.695499420166016,49.695499420166016 C-49.695499420166016,49.695499420166016 -49.695499420166016,-49.695499420166016 -49.695499420166016,-49.695499420166016 C-49.695499420166016,-49.695499420166016 49.695499420166016,-49.695499420166016 49.695499420166016,-49.695499420166016z"></path></g></g></g><g mask="url(#__lottie_element_4530_1)" style="display: none;"><g transform="matrix(0.6399999856948853,0,0,0.6399999856948853,347.44000244140625,286.760009765625)" opacity="1"><g opacity="1" transform="matrix(1,0,0,1,54,-109)"><path fill="url(#__lottie_element_4529)" fill-opacity="1" d=" M49.695499420166016,-49.695499420166016 C49.695499420166016,-49.695499420166016 49.695499420166016,49.695499420166016 49.695499420166016,49.695499420166016 C49.695499420166016,49.695499420166016 -49.695499420166016,49.695499420166016 -49.695499420166016,49.695499420166016 C-49.695499420166016,49.695499420166016 -49.695499420166016,-49.695499420166016 -49.695499420166016,-49.695499420166016 C-49.695499420166016,-49.695499420166016 49.695499420166016,-49.695499420166016 49.695499420166016,-49.695499420166016z"></path></g></g></g><g mask="url(#__lottie_element_4537_1)" style="display: block;"><g transform="matrix(1,0,0,1,260,261)" opacity="1"><g opacity="1" transform="matrix(1,0,0,1,54,-109)"><path fill="url(#__lottie_element_4536)" fill-opacity="1" d=" M49.695499420166016,-49.695499420166016 C49.695499420166016,-49.695499420166016 49.695499420166016,49.695499420166016 49.695499420166016,49.695499420166016 C49.695499420166016,49.695499420166016 -49.695499420166016,49.695499420166016 -49.695499420166016,49.695499420166016 C-49.695499420166016,49.695499420166016 -49.695499420166016,-49.695499420166016 -49.695499420166016,-49.695499420166016 C-49.695499420166016,-49.695499420166016 49.695499420166016,-49.695499420166016 49.695499420166016,-49.695499420166016z"></path></g></g></g><g mask="url(#__lottie_element_4544_1)" style="display: block;"><g transform="matrix(0.6399999856948853,0,0,0.6399999856948853,347.44000244140625,286.760009765625)" opacity="1"><g opacity="1" transform="matrix(1,0,0,1,54,-109)"><path fill="url(#__lottie_element_4543)" fill-opacity="1" d=" M49.695499420166016,-49.695499420166016 C49.695499420166016,-49.695499420166016 49.695499420166016,49.695499420166016 49.695499420166016,49.695499420166016 C49.695499420166016,49.695499420166016 -49.695499420166016,49.695499420166016 -49.695499420166016,49.695499420166016 C-49.695499420166016,49.695499420166016 -49.695499420166016,-49.695499420166016 -49.695499420166016,-49.695499420166016 C-49.695499420166016,-49.695499420166016 49.695499420166016,-49.695499420166016 49.695499420166016,-49.695499420166016z"></path></g></g></g></g></svg>