<svg xmlns="http://www.w3.org/2000/svg" xmlns:xlink="http://www.w3.org/1999/xlink" viewBox="0 0 520 520" width="520" height="520" preserveAspectRatio="xMidYMid meet" style="width: 100%; height: 100%; transform: translate3d(0px, 0px, 0px); content-visibility: visible;"><defs><clipPath id="__lottie_element_1223"><rect width="520" height="520" x="0" y="0"></rect></clipPath><linearGradient id="__lottie_element_1227" spreadMethod="pad" gradientUnits="userSpaceOnUse" x1="0" y1="122.98400115966797" x2="-0.421999990940094" y2="-119.68800354003906"><stop offset="0%" stop-color="rgb(0,129,237)"></stop><stop offset="50%" stop-color="rgb(60,163,246)"></stop><stop offset="100%" stop-color="rgb(119,196,255)"></stop></linearGradient><linearGradient id="__lottie_element_1234" spreadMethod="pad" gradientUnits="userSpaceOnUse" x1="-41.65999984741211" y1="21.597999572753906" x2="33.35499954223633" y2="-20.03700065612793"><stop offset="0%" stop-color="rgb(255,255,255)"></stop><stop offset="50%" stop-color="rgb(255,255,255)"></stop><stop offset="100%" stop-color="rgb(255,255,255)"></stop></linearGradient><mask id="__lottie_element_1236"><path fill="url(#__lottie_element_1235)" d=" M-28.82900047302246,29.45400047302246 C-32.07899856567383,29.45400047302246 -35.35300064086914,28.402999877929688 -38.104000091552734,26.235000610351562 C-44.611000061035156,21.10700035095215 -45.72800064086914,11.675999641418457 -40.60100173950195,5.170000076293945 C-23.259000778198242,-16.833999633789062 2.739000082015991,-29.45400047302246 30.726999282836914,-29.45400047302246 C39.01100158691406,-29.45400047302246 45.72700119018555,-22.738000869750977 45.72700119018555,-14.454000473022461 C45.72700119018555,-6.170000076293945 39.01100158691406,0.5460000038146973 30.726999282836914,0.5460000038146973 C11.98799991607666,0.5460000038146973 -5.421000003814697,8.99899959564209 -17.03700065612793,23.73900032043457 C-19.996999740600586,27.4950008392334 -24.392000198364258,29.45400047302246 -28.82900047302246,29.45400047302246z"></path></mask><linearGradient id="__lottie_element_1235" spreadMethod="pad" gradientUnits="userSpaceOnUse" x1="-41.65999984741211" y1="21.597999572753906" x2="33.35499954223633" y2="-20.03700065612793"><stop stop-color="rgb(255,255,255)" offset="0%" stop-opacity="0"></stop><stop stop-color="rgb(255,255,255)" offset="0%" stop-opacity="0.17499999701976776"></stop><stop stop-color="rgb(255,255,255)" offset="0%" stop-opacity="0.3499999940395355"></stop><stop stop-color="rgb(255,255,255)" offset="50%" stop-opacity="0.675000011920929"></stop><stop stop-color="rgb(255,255,255)" offset="100%" stop-opacity="1"></stop></linearGradient><linearGradient id="__lottie_element_1237" spreadMethod="pad" gradientUnits="userSpaceOnUse" x1="-8.428000450134277" y1="15.604000091552734" x2="6.004000186920166" y2="-16.283000946044922"><stop offset="0%" stop-color="rgb(255,255,255)" stop-opacity="0.15000000596046448"></stop><stop offset="50%" stop-color="rgb(255,255,255)" stop-opacity="0.25"></stop><stop offset="100%" stop-color="rgb(255,255,255)" stop-opacity="0.3499999940395355"></stop></linearGradient><linearGradient id="__lottie_element_1241" spreadMethod="pad" gradientUnits="userSpaceOnUse" x1="0" y1="216.85899353027344" x2="2.125" y2="-200.76800537109375"><stop offset="0%" stop-color="rgb(255,155,35)"></stop><stop offset="50%" stop-color="rgb(255,190,46)"></stop><stop offset="100%" stop-color="rgb(255,226,57)"></stop></linearGradient></defs><g clip-path="url(#__lottie_element_1223)"><g transform="matrix(0.9229272603988647,0,0,1.0770727396011353,71.72857666015625,-84.27250671386719)" opacity="1" style="display: block;"><g opacity="1" transform="matrix(1,0,0,1,204.99099731445312,297.1789855957031)"><path fill="url(#__lottie_element_1227)" fill-opacity="1" d=" M98.802001953125,-31.41900062561035 C87.01000213623047,-31.41900062561035 75.84400177001953,-28.74799919128418 65.86499786376953,-23.989999771118164 C54.72200012207031,-79.78399658203125 5.474999904632568,-121.8280029296875 -53.595001220703125,-121.8280029296875 C-120.87999725341797,-121.8280029296875 -175.4239959716797,-67.28299713134766 -175.4239959716797,0 C-175.4239959716797,67.28399658203125 -120.87999725341797,121.8280029296875 -53.595001220703125,121.8280029296875 C-53.23099899291992,121.8280029296875 -52.86899948120117,121.81700134277344 -52.505001068115234,121.81400299072266 C-52.505001068115234,121.81400299072266 -52.505001068115234,121.8280029296875 -52.505001068115234,121.8280029296875 C-52.505001068115234,121.8280029296875 96.86199951171875,121.8280029296875 96.86199951171875,121.8280029296875 C96.86199951171875,121.8280029296875 96.86199951171875,121.77799987792969 96.86199951171875,121.77799987792969 C97.50800323486328,121.79399871826172 98.1520004272461,121.8280029296875 98.802001953125,121.8280029296875 C141.11900329589844,121.8280029296875 175.4239959716797,87.52200317382812 175.4239959716797,45.20399856567383 C175.4239959716797,2.885999917984009 141.11900329589844,-31.41900062561035 98.802001953125,-31.41900062561035z"></path></g></g><g transform="matrix(0.9229272603988647,0,0,1.0770727396011353,71.72857666015625,-84.27250671386719)" opacity="0.33002575641075704" style="display: block;"><g opacity="1" transform="matrix(1,0,0,1,204.99099731445312,297.1789855957031)"><path fill="rgb(168,214,251)" fill-opacity="1" d=" M98.802001953125,-31.41900062561035 C87.01000213623047,-31.41900062561035 75.84400177001953,-28.74799919128418 65.86499786376953,-23.989999771118164 C54.72200012207031,-79.78399658203125 5.474999904632568,-121.8280029296875 -53.595001220703125,-121.8280029296875 C-120.87999725341797,-121.8280029296875 -175.4239959716797,-67.28299713134766 -175.4239959716797,0 C-175.4239959716797,67.28399658203125 -120.87999725341797,121.8280029296875 -53.595001220703125,121.8280029296875 C-53.23099899291992,121.8280029296875 -52.86899948120117,121.81700134277344 -52.505001068115234,121.81400299072266 C-52.505001068115234,121.81400299072266 -52.505001068115234,121.8280029296875 -52.505001068115234,121.8280029296875 C-52.505001068115234,121.8280029296875 96.86199951171875,121.8280029296875 96.86199951171875,121.8280029296875 C96.86199951171875,121.8280029296875 96.86199951171875,121.77799987792969 96.86199951171875,121.77799987792969 C97.50800323486328,121.79399871826172 98.1520004272461,121.8280029296875 98.802001953125,121.8280029296875 C141.11900329589844,121.8280029296875 175.4239959716797,87.52200317382812 175.4239959716797,45.20399856567383 C175.4239959716797,2.885999917984009 141.11900329589844,-31.41900062561035 98.802001953125,-31.41900062561035z"></path></g></g><g transform="matrix(0.9125094413757324,0.16137483716011047,-0.13827964663505554,1.0649149417877197,114.42361450195312,-104.86199188232422)" opacity="1" style="display: block;"><g opacity="1" transform="matrix(1,0,0,1,120.66699981689453,235.85899353027344)"><path fill="url(#__lottie_element_1234)" mask="url(#__lottie_element_1236)" fill-opacity="1" d="M0 0 M-28.82900047302246,29.45400047302246 C-32.07899856567383,29.45400047302246 -35.35300064086914,28.402999877929688 -38.104000091552734,26.235000610351562 C-44.611000061035156,21.10700035095215 -45.72800064086914,11.675999641418457 -40.60100173950195,5.170000076293945 C-23.259000778198242,-16.833999633789062 2.739000082015991,-29.45400047302246 30.726999282836914,-29.45400047302246 C39.01100158691406,-29.45400047302246 45.72700119018555,-22.738000869750977 45.72700119018555,-14.454000473022461 C45.72700119018555,-6.170000076293945 39.01100158691406,0.5460000038146973 30.726999282836914,0.5460000038146973 C11.98799991607666,0.5460000038146973 -5.421000003814697,8.99899959564209 -17.03700065612793,23.73900032043457 C-19.996999740600586,27.4950008392334 -24.392000198364258,29.45400047302246 -28.82900047302246,29.45400047302246z"></path></g><g opacity="1" transform="matrix(1,0,0,1,75.93099975585938,294.59100341796875)"><path fill="url(#__lottie_element_1237)" fill-opacity="1" d=" M-0.3109999895095825,17.586999893188477 C-8.595000267028809,17.586999893188477 -15.310999870300293,10.871000289916992 -15.310999870300293,2.5869998931884766 C-15.310999870300293,0.7179999947547913 -15.253000259399414,-1.1729999780654907 -15.140000343322754,-3.0329999923706055 C-14.633000373840332,-11.300999641418457 -7.51800012588501,-17.586999893188477 0.7490000128746033,-17.08799934387207 C9.017999649047852,-16.58099937438965 15.310999870300293,-9.468999862670898 14.805000305175781,-1.2000000476837158 C14.727999687194824,0.052000001072883606 14.689000129699707,1.3270000219345093 14.689000129699707,2.5869998931884766 C14.689000129699707,10.871000289916992 7.9730000495910645,17.586999893188477 -0.3109999895095825,17.586999893188477z"></path></g></g><g transform="matrix(0.7212200164794922,0,0,0.5699999928474426,248.31500244140625,179.11647033691406)" opacity="1" style="display: block;"><g opacity="1" transform="matrix(1,0,0,1,115.86900329589844,211.37600708007812)"><path fill="url(#__lottie_element_1241)" fill-opacity="1" d=" M-2.2109999656677246,-211.1269989013672 C-2.2109999656677246,-211.1269989013672 94.23899841308594,-211.1269989013672 94.23899841308594,-211.1269989013672 C104.83499908447266,-211.1269989013672 111.72699737548828,-199.9409942626953 106.98799896240234,-190.43499755859375 C106.98799896240234,-190.43499755859375 35.08563995361328,-58.11391830444336 35.08563995361328,-58.11391830444336 C31.53264045715332,-50.984920501708984 36.70064163208008,-42.59458541870117 44.647640228271484,-42.59458541870117 C44.647640228271484,-42.59458541870117 109.82915496826172,-42.762020111083984 109.82915496826172,-42.762020111083984 C118.94315338134766,-42.762020111083984 123.87615203857422,-32.05602264404297 117.97115325927734,-25.092021942138672 C117.97115325927734,-25.092021942138672 -66.748291015625,160.75628662109375 -66.748291015625,160.75628662109375 C-69.21929168701172,163.66928100585938 -73.91029357910156,161.18028259277344 -72.8982925415039,157.49227905273438 C-72.8982925415039,157.49227905273438 -34.25436019897461,3.576079845428467 -34.25436019897461,3.576079845428467 C-32.3813591003418,-3.249920129776001 -37.50236129760742,-9.989920616149902 -44.56135940551758,-9.989920616149902 C-44.56135940551758,-9.989920616149902 -103.16385650634766,-9.845211029052734 -103.16385650634766,-9.845211029052734 C-112.87985229492188,-9.845211029052734 -119.74785614013672,-19.38387680053711 -116.69385528564453,-28.635875701904297 C-116.69385528564453,-28.635875701904297 -29.273000717163086,-191.51800537109375 -29.273000717163086,-191.51800537109375 C-23.428180694580078,-203.2206573486328 -14.503000259399414,-211.1269989013672 -2.2109999656677246,-211.1269989013672z"></path></g></g></g></svg>