<svg xmlns="http://www.w3.org/2000/svg" xmlns:xlink="http://www.w3.org/1999/xlink" viewBox="0 0 520 520" width="520" height="520" preserveAspectRatio="xMidYMid meet" style="width: 100%; height: 100%; transform: translate3d(0px, 0px, 0px); content-visibility: visible;"><defs><clipPath id="__lottie_element_1381"><rect width="520" height="520" x="0" y="0"></rect></clipPath><linearGradient id="__lottie_element_1386" spreadMethod="pad" gradientUnits="userSpaceOnUse" x1="0" y1="101.28900146484375" x2="2.125" y2="-98.10900115966797"><stop offset="0%" stop-color="rgb(255,155,35)"></stop><stop offset="50%" stop-color="rgb(255,190,46)"></stop><stop offset="100%" stop-color="rgb(255,226,57)"></stop></linearGradient><linearGradient id="__lottie_element_1390" spreadMethod="pad" gradientUnits="userSpaceOnUse" x1="-41.65999984741211" y1="21.597999572753906" x2="33.35499954223633" y2="-20.03700065612793"><stop offset="0%" stop-color="rgb(255,255,255)"></stop><stop offset="50%" stop-color="rgb(255,255,255)"></stop><stop offset="100%" stop-color="rgb(255,255,255)"></stop></linearGradient><mask id="__lottie_element_1392"><path fill="url(#__lottie_element_1391)" d=" M-28.82900047302246,29.45400047302246 C-32.07899856567383,29.45400047302246 -35.35300064086914,28.402999877929688 -38.104000091552734,26.235000610351562 C-44.611000061035156,21.10700035095215 -45.72800064086914,11.675999641418457 -40.60100173950195,5.170000076293945 C-23.259000778198242,-16.833999633789062 2.739000082015991,-29.45400047302246 30.726999282836914,-29.45400047302246 C39.01100158691406,-29.45400047302246 45.72700119018555,-22.738000869750977 45.72700119018555,-14.454000473022461 C45.72700119018555,-6.170000076293945 39.01100158691406,0.5460000038146973 30.726999282836914,0.5460000038146973 C11.98799991607666,0.5460000038146973 -5.421000003814697,8.99899959564209 -17.03700065612793,23.73900032043457 C-19.996999740600586,27.4950008392334 -24.392000198364258,29.45400047302246 -28.82900047302246,29.45400047302246z"></path></mask><linearGradient id="__lottie_element_1391" spreadMethod="pad" gradientUnits="userSpaceOnUse" x1="-41.65999984741211" y1="21.597999572753906" x2="33.35499954223633" y2="-20.03700065612793"><stop stop-color="rgb(255,255,255)" offset="0%" stop-opacity="0"></stop><stop stop-color="rgb(255,255,255)" offset="0%" stop-opacity="0.17499999701976776"></stop><stop stop-color="rgb(255,255,255)" offset="0%" stop-opacity="0.3499999940395355"></stop><stop stop-color="rgb(255,255,255)" offset="50%" stop-opacity="0.675000011920929"></stop><stop stop-color="rgb(255,255,255)" offset="100%" stop-opacity="1"></stop></linearGradient><linearGradient id="__lottie_element_1393" spreadMethod="pad" gradientUnits="userSpaceOnUse" x1="-8.428000450134277" y1="15.604000091552734" x2="6.004000186920166" y2="-16.283000946044922"><stop offset="0%" stop-color="rgb(255,255,255)" stop-opacity="0.15000000596046448"></stop><stop offset="50%" stop-color="rgb(255,255,255)" stop-opacity="0.25"></stop><stop offset="100%" stop-color="rgb(255,255,255)" stop-opacity="0.3499999940395355"></stop></linearGradient><g id="__lottie_element_1395"><g transform="matrix(-0.39721524715423584,0.9110596179962158,-0.9110596179962158,-0.39721524715423584,581.8111572265625,153.48690795898438)" opacity="1" style="display: block;"><g opacity="1" transform="matrix(1,0,0,1,0,0)"><path stroke-linecap="round" stroke-linejoin="round" fill-opacity="0" stroke="rgb(255,225,57)" stroke-opacity="1" stroke-width="30" d=" M229.9980010986328,119.63999938964844 C229.9980010986328,119.63999938964844 229.9980010986328,76.63600158691406 229.9980010986328,76.63600158691406"></path></g><g opacity="1" transform="matrix(1,0,0,1,0,0)"><path stroke-linecap="round" stroke-linejoin="round" fill-opacity="0" stroke="rgb(255,225,57)" stroke-opacity="1" stroke-width="30" d=" M229.9980010986328,392.1520080566406 C229.9980010986328,392.1520080566406 229.9980010986328,435.156005859375 229.9980010986328,435.156005859375"></path></g><g opacity="1" transform="matrix(1,0,0,1,0,0)"><path stroke-linecap="round" stroke-linejoin="round" fill-opacity="0" stroke="rgb(255,225,57)" stroke-opacity="1" stroke-width="30" d=" M93.74199676513672,255.89599609375 C93.74199676513672,255.89599609375 50.737998962402344,255.89599609375 50.737998962402344,255.89599609375"></path></g><g opacity="1" transform="matrix(1,0,0,1,0,0)"><path stroke-linecap="round" stroke-linejoin="round" fill-opacity="0" stroke="rgb(255,225,57)" stroke-opacity="1" stroke-width="30" d=" M366.25299072265625,255.89599609375 C366.25299072265625,255.89599609375 409.2569885253906,255.89599609375 409.2569885253906,255.89599609375"></path></g><g opacity="1" transform="matrix(1,0,0,1,118.4469985961914,144.34500122070312)"><path stroke-linecap="round" stroke-linejoin="round" fill-opacity="0" stroke="rgb(255,225,57)" stroke-opacity="1" stroke-width="30" d=" M15.204000473022461,15.204999923706055 C15.204000473022461,15.204999923706055 -15.204000473022461,-15.204999923706055 -15.204000473022461,-15.204999923706055"></path></g><g opacity="1" transform="matrix(1,0,0,1,341.54998779296875,367.447998046875)"><path stroke-linecap="round" stroke-linejoin="round" fill-opacity="0" stroke="rgb(255,225,57)" stroke-opacity="1" stroke-width="30" d=" M-15.204000473022461,-15.204999923706055 C-15.204000473022461,-15.204999923706055 15.204000473022461,15.204999923706055 15.204000473022461,15.204999923706055"></path></g><g opacity="1" transform="matrix(1,0,0,1,118.4469985961914,367.447998046875)"><path stroke-linecap="round" stroke-linejoin="round" fill-opacity="0" stroke="rgb(255,225,57)" stroke-opacity="1" stroke-width="30" d=" M15.204000473022461,-15.204000473022461 C15.204000473022461,-15.204000473022461 -15.204000473022461,15.204000473022461 -15.204000473022461,15.204000473022461"></path></g><g opacity="1" transform="matrix(1,0,0,1,341.54998779296875,144.34500122070312)"><path stroke-linecap="round" stroke-linejoin="round" fill-opacity="0" stroke="rgb(255,225,57)" stroke-opacity="1" stroke-width="30" d=" M-15.204000473022461,15.204000473022461 C-15.204000473022461,15.204000473022461 15.204000473022461,-15.204000473022461 15.204000473022461,-15.204000473022461"></path></g></g></g><radialGradient id="__lottie_element_1400" spreadMethod="pad" gradientUnits="userSpaceOnUse" cx="0" cy="0" r="222.406005859375" fx="0" fy="0"><stop offset="52%" stop-color="rgb(255,155,35)"></stop><stop offset="78%" stop-color="rgb(255,190,46)"></stop><stop offset="100%" stop-color="rgb(255,226,57)"></stop></radialGradient><mask id="__lottie_element_1395_1" mask-type="alpha"><use xlink:href="#__lottie_element_1395"></use></mask></defs><g clip-path="url(#__lottie_element_1381)"><g transform="matrix(1,0,0,1,27.716995239257812,6.0990142822265625)" opacity="1" style="display: block;"><g opacity="1" transform="matrix(1,0,0,1,229.9980010986328,255.45700073242188)"><path fill="url(#__lottie_element_1386)" fill-opacity="1" d=" M101.2229995727539,0.0010000000474974513 C101.2229995727539,55.904998779296875 55.90399932861328,101.2239990234375 0,101.2239990234375 C-55.90399932861328,101.2239990234375 -101.2229995727539,55.904998779296875 -101.2229995727539,0.0010000000474974513 C-101.2229995727539,-55.90299987792969 -55.90399932861328,-101.2229995727539 0,-101.2229995727539 C55.90399932861328,-101.2229995727539 101.2229995727539,-55.90299987792969 101.2229995727539,0.0010000000474974513z"></path></g></g><g transform="matrix(0.9442369937896729,-0.18354108929634094,0.18354108929634094,0.9442369937896729,61.74656677246094,11.529937744140625)" opacity="1" style="display: block;"><g opacity="1" transform="matrix(1,0,0,1,120.66699981689453,235.85899353027344)"><path fill="url(#__lottie_element_1390)" mask="url(#__lottie_element_1392)" fill-opacity="1" d="M0 0 M-28.82900047302246,29.45400047302246 C-32.07899856567383,29.45400047302246 -35.35300064086914,28.402999877929688 -38.104000091552734,26.235000610351562 C-44.611000061035156,21.10700035095215 -45.72800064086914,11.675999641418457 -40.60100173950195,5.170000076293945 C-23.259000778198242,-16.833999633789062 2.739000082015991,-29.45400047302246 30.726999282836914,-29.45400047302246 C39.01100158691406,-29.45400047302246 45.72700119018555,-22.738000869750977 45.72700119018555,-14.454000473022461 C45.72700119018555,-6.170000076293945 39.01100158691406,0.5460000038146973 30.726999282836914,0.5460000038146973 C11.98799991607666,0.5460000038146973 -5.421000003814697,8.99899959564209 -17.03700065612793,23.73900032043457 C-19.996999740600586,27.4950008392334 -24.392000198364258,29.45400047302246 -28.82900047302246,29.45400047302246z"></path></g><g opacity="1" transform="matrix(1,0,0,1,75.93099975585938,294.59100341796875)"><path fill="url(#__lottie_element_1393)" fill-opacity="1" d=" M-0.3109999895095825,17.586999893188477 C-8.595000267028809,17.586999893188477 -15.310999870300293,10.871000289916992 -15.310999870300293,2.5869998931884766 C-15.310999870300293,0.7179999947547913 -15.253000259399414,-1.1729999780654907 -15.140000343322754,-3.0329999923706055 C-14.633000373840332,-11.300999641418457 -7.51800012588501,-17.586999893188477 0.7490000128746033,-17.08799934387207 C9.017999649047852,-16.58099937438965 15.310999870300293,-9.468999862670898 14.805000305175781,-1.2000000476837158 C14.727999687194824,0.052000001072883606 14.689000129699707,1.3270000219345093 14.689000129699707,2.5869998931884766 C14.689000129699707,10.871000289916992 7.9730000495910645,17.586999893188477 -0.3109999895095825,17.586999893188477z"></path></g></g><g mask="url(#__lottie_element_1395_1)" style="display: block;"><g transform="matrix(-0.39721524715423584,0.9110596179962158,-0.9110596179962158,-0.39721524715423584,-484.9613037109375,486.69140625)" opacity="1"><g opacity="1" transform="matrix(1,0,0,1,-508,-596)"><path fill="url(#__lottie_element_1400)" fill-opacity="1" d=" M0,-216.1094970703125 C119.27082824707031,-216.1094970703125 216.1094970703125,-119.27082824707031 216.1094970703125,0 C216.1094970703125,119.27082824707031 119.27082824707031,216.1094970703125 0,216.1094970703125 C-119.27082824707031,216.1094970703125 -216.1094970703125,119.27082824707031 -216.1094970703125,0 C-216.1094970703125,-119.27082824707031 -119.27082824707031,-216.1094970703125 0,-216.1094970703125z"></path></g></g></g></g></svg>